<svg width="113" height="90" viewBox="0 0 113 90" fill="none" xmlns="http://www.w3.org/2000/svg">
<path d="M7.51633 18.9429L27.6528 6.60126C28.2991 6.65018 29.0389 6.77788 29.8722 6.98438C30.7199 7.15494 31.4491 7.36165 32.0599 7.60451C32.9941 7.97594 33.8424 8.45884 34.6047 9.05321C35.3671 9.64759 35.8892 10.3753 36.171 11.2363C36.4528 12.0974 36.358 13.1208 35.8866 14.3065L29.758 29.7208L34.2853 31.5208C34.3364 31.9156 34.3374 32.4362 34.2885 33.0825C34.2755 33.7431 34.1405 34.3968 33.8833 35.0436C33.4262 36.1934 32.821 36.9306 32.0677 37.2553C31.3288 37.544 30.5461 37.5241 29.7197 37.1955L27.1866 36.1884L24.4865 42.9793C24.1489 42.8867 23.5993 42.7514 22.8378 42.5735C22.098 42.4458 21.4227 42.2605 20.8119 42.0176C19.4465 41.4748 18.4651 40.8557 17.8677 40.1605C17.2703 39.4653 17.2573 38.399 17.8287 36.9618L19.3716 33.0812L5.95139 27.7455C5.37563 27.1005 4.96827 26.2936 4.72931 25.3247C4.52628 24.3702 4.63905 23.3539 5.06762 22.276C5.31048 21.6652 5.63948 21.047 6.05463 20.4215C6.46979 19.7959 6.95702 19.3031 7.51633 18.9429ZM22.3203 26.7637L27.0671 14.9818L26.9054 14.9175L14.2358 23.5494L22.3203 26.7637Z" fill="white"/>
<path d="M67.4299 36.4056C67.0163 33.8873 66.4045 31.8326 65.5946 30.2415C64.7784 28.6123 63.8244 27.4563 62.7327 26.7736C61.6409 26.0908 60.4464 25.856 59.1491 26.0691C57.89 26.2759 56.8555 26.8964 56.0458 27.9307C55.2298 28.9268 54.6926 30.3081 54.4341 32.0747C54.2139 33.835 54.3106 35.9743 54.7242 38.4925C55.3509 42.3081 56.3742 45.0789 57.794 46.8049C59.2139 48.5309 60.9159 49.231 62.9 48.9051C64.9604 48.5667 66.3871 47.3527 67.1803 45.2632C67.9734 43.1736 68.0566 40.2211 67.4299 36.4056ZM64.0759 55.7064C61.1379 56.189 58.4337 55.9474 55.9632 54.9818C53.5245 53.9717 51.4532 52.2155 49.7491 49.7133C48.045 47.2111 46.8608 43.9377 46.1965 39.8932C45.5321 35.8488 45.6293 32.3846 46.4879 29.5006C47.3402 26.5785 48.7632 24.268 50.7568 22.569C52.7824 20.8257 55.226 19.719 58.0876 19.2489C60.9111 18.7852 63.5613 19.0552 66.0381 20.059C68.5086 21.0247 70.615 22.7555 72.3572 25.2515C74.1376 27.7412 75.3568 30.9892 76.0149 34.9955C76.6792 39.0399 76.5852 42.5232 75.7329 45.4454C74.9187 48.3612 73.4989 50.6908 71.4733 52.4342C69.4415 54.1394 66.9757 55.2301 64.0759 55.7064Z" fill="white"/>
<path d="M78.3903 65.6072L96.8475 50.8722C97.4949 50.8409 98.2448 50.8762 99.0973 50.9781C99.9595 51.0426 100.709 51.1577 101.345 51.3232C102.318 51.5763 103.219 51.9507 104.049 52.4464C104.879 52.942 105.487 53.5996 105.873 54.4192C106.259 55.2389 106.292 56.2661 105.97 57.501L101.793 73.5545L106.508 74.7813C106.608 75.1668 106.673 75.6832 106.704 76.3306C106.773 76.9878 106.72 77.6531 106.545 78.3267C106.233 79.5242 105.724 80.3305 105.016 80.7458C104.319 81.1236 103.539 81.2006 102.679 80.9766L100.041 80.2902L98.2003 87.3627C97.8538 87.3125 97.2917 87.2461 96.5141 87.1637C95.7642 87.1284 95.0711 87.0279 94.435 86.8624C93.013 86.4924 91.9626 85.9994 91.2839 85.3833C90.6052 84.7672 90.4605 83.7107 90.85 82.2139L91.9016 78.1725L77.9249 74.5358C77.2739 73.9668 76.77 73.2164 76.4131 72.2846C76.0937 71.3624 76.08 70.34 76.3721 69.2174C76.5377 68.5812 76.7878 67.9271 77.1225 67.2551C77.4571 66.5831 77.8797 66.0338 78.3903 65.6072ZM94.0471 71.539L97.3017 59.2609L97.1333 59.2171L85.6274 69.3482L94.0471 71.539Z" fill="white"/>
</svg>
