<svg width="505" height="246" viewBox="0 0 505 246" fill="none" xmlns="http://www.w3.org/2000/svg">
<ellipse cx="251" cy="213.5" rx="250" ry="23.5" fill="#193C80" fill-opacity="0.4"/>
<path d="M47.1441 72.0184C67.524 24.7938 115.126 10.0617 136.38 8.59881L168.002 9.14141L211.912 30.9828L285.816 49.9647C373.126 0.430081 414.152 42.8881 434.886 63.4883C451.474 79.9684 452.624 127.619 451.126 149.384C461.84 155.894 484.222 172.221 488.044 185.445C492.821 201.976 458.946 209.829 454.73 209.757L361.97 208.165L299.73 222.281L196.393 222.616L132.762 219.416C104.657 226.947 44.1449 232.066 26.9448 192.295C5.44461 142.58 32.8777 116.902 36.7665 111.486C39.8775 107.153 44.9812 83.3688 47.1441 72.0184Z" fill="white"/>
<path d="M187.161 195.465C134.747 221.896 63.2096 209.225 33.9925 199.585C49.4292 224.144 100.356 223.78 123.889 220.529L206.901 224.905L296.169 208.723L394.832 210.416L454.748 135.106L446.769 83.9365C436.683 73.6412 415.944 51.6913 413.675 46.2539C411.407 40.8165 394.042 35.2325 385.643 33.1202C364.914 81.0136 299.012 92.2263 268.652 91.8459L231.414 49.8747C208.578 28.8167 173.483 1.59559 184.733 17.4418C206.559 48.183 252.679 162.427 187.161 195.465Z" fill="#DADFE8"/>
<path d="M343.219 170.307C320.473 158.783 286.387 155.976 272.187 156.014C271.486 196.828 234.305 217.081 215.802 222.106C298.298 231.957 350.499 213.03 366.288 202.335C368.075 196.461 365.965 181.832 343.219 170.307Z" fill="#4467AB"/>
<path d="M384.756 207.713C378.964 151.941 427.197 143.068 452.037 145.603L451.958 150.241L487.755 177.848L487.459 195.135L469.984 205.801C461.953 206.788 445.218 208.75 442.52 208.704L384.756 207.713Z" fill="#4467AB"/>
<path d="M447.566 86.4808C444.838 88.121 433.599 64.7314 427.463 53.6604C434.967 50.5557 449.056 48.8011 455.669 56.675C463.935 66.5172 450.975 84.4305 447.566 86.4808Z" fill="#4467AB"/>
<path d="M221.467 64.0438C208.027 60.7766 202.94 45.8715 202.077 38.8274C205.636 28.0914 233.825 23.9077 247.474 23.1578L275.95 35.0339L290.688 61.014L286.408 89.1984C280.305 100.762 266.412 123.861 259.666 123.745C252.92 123.63 251.306 119.384 251.342 117.276C246.984 100.893 234.907 67.3111 221.467 64.0438Z" fill="#4467AB"/>
<path d="M82.4838 3.45641L112.268 12.8244L71.8292 34.4837C62.8718 48.5292 44.6112 77.1204 43.2272 79.1211C41.8433 81.1218 35.6461 62.1206 32.7205 52.37C33.0933 47.0341 34.1847 35.8622 35.5687 33.8615C36.9526 31.8608 46.2391 18.299 50.7093 11.7681L82.4838 3.45641Z" fill="#4467AB" stroke="black"/>
<path d="M94.6041 108.26C90.0066 140.235 46.9157 134.575 25.9449 127.748L37.2257 109.385L39.6811 89.1824L53.1569 65.7952C68.8883 66.6274 99.2016 76.2857 94.6041 108.26Z" fill="#4467AB"/>
<path d="M119.553 104.471C122.424 84.0683 145.447 78.3444 157.541 78.1302C206.552 73.0666 207.602 110.199 205.706 122.398C202.567 142.588 185.411 149.886 160.949 149.888C136.487 149.89 115.23 135.185 119.553 104.471Z" fill="#4467AB"/>
<path d="M251.973 128.192C255.625 126.054 259.762 123.169 263.929 119.629M202.496 37.5091C205.843 35.1693 209.112 33.1589 212.3 31.4471M263.929 119.629C270.818 136.026 278.327 175.207 253.258 200.757C237.134 217.19 212.616 221.755 188.358 222.414M263.929 119.629C281.09 105.05 298.775 79.3675 285.308 49.0519M212.3 31.4471C213.735 30.6768 215.153 29.9669 216.555 29.3148C250.172 13.6701 274.062 31.2303 282.527 43.5216C283.572 45.3809 284.497 47.2248 285.308 49.0519M212.3 31.4471C187.412 7.14106 145.94 7.07967 128.315 10.0872C123.102 10.8898 118.168 11.9739 113.499 13.3048M113.499 13.3048C101.419 4.48922 72.0696 -5.63972 47.2169 17.1307C25.1411 37.357 33.7649 63.7151 44.7673 77.4003M113.499 13.3048C99.6555 17.2507 88.1465 23.3658 78.6337 30.7441M44.7673 77.4003C40.1768 89.4054 38.0626 100.767 37.6215 109.331C18.2935 129.666 8.81698 165.774 31.4787 196.952C54.1405 228.129 96.4341 221.263 127.657 220.533C142.814 220.179 165.47 223.035 188.358 222.414M44.7673 77.4003C50.9356 61.2689 61.5749 43.9754 78.6337 30.7441M133.754 110.981C141.16 121.792 160.299 137.079 177.604 111.733M51.957 109.577C57.3225 116.417 71.0744 126.101 83.158 110.113M218.913 63.9395C227.049 56.7686 246.693 47.5458 260.175 68.0215M285.308 49.0519C308.803 33.1471 367.866 10.5702 416.156 47.5013C419.309 49.9128 422.213 52.4168 424.884 54.9978M443.194 167.745C445.417 162.803 447.601 156.504 449.286 149.292M449.286 149.292C465.703 153.65 495.344 176.421 486.639 192.108C472.021 218.45 429.887 205.853 390.195 208.589C370.602 209.94 360.388 208.781 357.729 208.032M449.286 149.292C453.309 132.073 454.488 109.651 446.556 88.0899M188.358 222.414C248.179 226.394 368.817 225.51 365.121 195.084C362.965 177.334 340.315 165.979 318.448 162.23M424.884 54.9978C431.844 50.8407 447.829 45.0924 455.616 58.3005C458.895 63.8618 458.828 75.479 446.556 88.0899M424.884 54.9978C435.392 65.1512 442.291 76.4962 446.556 88.0899M58.3768 30.3965C62.2104 28.9158 71.6288 26.9122 78.6337 30.7441" stroke="#193C81" stroke-width="6" stroke-linecap="round" stroke-linejoin="round"/>
<path fill-rule="evenodd" clip-rule="evenodd" d="M88.5318 155.801C86.7433 155.087 84.8236 154.146 83.1717 152.984C81.7792 152.005 80.2815 150.667 79.3489 148.904C78.3256 146.97 78.0621 144.638 79.1172 142.288C80.413 139.403 83.3388 137.744 85.8257 136.81C88.504 135.804 91.6599 135.264 94.7046 135.197C97.7255 135.13 100.941 135.523 103.654 136.635C106.345 137.738 109.166 139.849 109.909 143.488C110.45 146.135 109.786 148.506 108.413 150.397C107.128 152.166 105.317 153.4 103.605 154.266C101.214 155.477 98.4744 156.24 96.1089 156.68L94.8382 162.512C94.3919 164.56 92.3699 165.858 90.3219 165.412C88.2739 164.965 86.9754 162.943 87.4217 160.895L88.5318 155.801Z" fill="#193C81"/>
<path d="M125.396 32.8118C130.222 21.9289 142.306 1.04828 155.403 4.64708C163.379 6.83865 157.643 21.5559 152.017 29.8945C158.033 23.3902 167.511 11.7767 173.759 16.3495C179.424 20.4956 171.948 31.7829 167.08 36.9011" stroke="#193C81" stroke-width="6" stroke-linecap="round" stroke-linejoin="round"/>
</svg>
